<svg width="23" height="23" viewBox="0 0 23 23" fill="none" xmlns="http://www.w3.org/2000/svg">
<mask id="mask0_337_2614" style="mask-type:alpha" maskUnits="userSpaceOnUse" x="0" y="0" width="23" height="23">
<rect x="0.342804" y="0.324829" width="21.96" height="21.96" fill="#D9D9D9"/>
</mask>
<g mask="url(#mask0_337_2614)">
<path d="M4.91784 19.5398C4.41459 19.5398 3.98363 19.3608 3.62495 19.0027C3.26688 18.644 3.08784 18.2131 3.08784 17.7098V4.89982C3.08784 4.39657 3.26688 3.96561 3.62495 3.60693C3.98363 3.24886 4.41459 3.06982 4.91784 3.06982H13.1528V4.89982H4.91784V17.7098H17.7278V9.47482H19.5578V17.7098C19.5578 18.2131 19.3788 18.644 19.0207 19.0027C18.6621 19.3608 18.2311 19.5398 17.7278 19.5398H4.91784ZM15.8978 8.55982V6.72982H14.0678V4.89982H15.8978V3.06982H17.7278V4.89982H19.5578V6.72982H17.7278V8.55982H15.8978ZM5.83284 15.8798H16.8128L13.3816 11.3048L10.6366 14.9648L8.57784 12.2198L5.83284 15.8798Z" fill="#1C1B1F"/>
</g>
</svg>
