<svg width="24" height="23" viewBox="0 0 24 23" fill="none" xmlns="http://www.w3.org/2000/svg">
<path d="M15.7293 16.6039L17.2934 15.0399L13.1599 10.9064V5.76744H10.9255V11.8001L15.7293 16.6039ZM12.0427 22.5248C10.4973 22.5248 9.04498 22.2314 7.68577 21.6445C6.32656 21.0584 5.14423 20.2626 4.13879 19.2572C3.13334 18.2517 2.33755 17.0694 1.75142 15.7102C1.16453 14.351 0.871094 12.8986 0.871094 11.3532C0.871094 9.80784 1.16453 8.35553 1.75142 6.99632C2.33755 5.63711 3.13334 4.45478 4.13879 3.44933C5.14423 2.44389 6.32656 1.64773 7.68577 1.06085C9.04498 0.474709 10.4973 0.181641 12.0427 0.181641C13.5881 0.181641 15.0404 0.474709 16.3996 1.06085C17.7588 1.64773 18.9412 2.44389 19.9466 3.44933C20.9521 4.45478 21.7478 5.63711 22.334 6.99632C22.9209 8.35553 23.2143 9.80784 23.2143 11.3532C23.2143 12.8986 22.9209 14.351 22.334 15.7102C21.7478 17.0694 20.9521 18.2517 19.9466 19.2572C18.9412 20.2626 17.7588 21.0584 16.3996 21.6445C15.0404 22.2314 13.5881 22.5248 12.0427 22.5248ZM12.0427 20.2905C14.5191 20.2905 16.6279 19.4203 18.3692 17.6797C20.1097 15.9384 20.98 13.8296 20.98 11.3532C20.98 8.87687 20.1097 6.76805 18.3692 5.02676C16.6279 3.28623 14.5191 2.41596 12.0427 2.41596C9.56633 2.41596 7.45787 3.28623 5.71734 5.02676C3.97605 6.76805 3.10541 8.87687 3.10541 11.3532C3.10541 13.8296 3.97605 15.9384 5.71734 17.6797C7.45787 19.4203 9.56633 20.2905 12.0427 20.2905Z" fill="#1C1B1F"/>
</svg>
