<svg width="261" height="248" viewBox="0 0 261 248" fill="none" xmlns="http://www.w3.org/2000/svg">
<path d="M130.5 0.542969L140.022 9.5572L150.915 2.06602L158.832 12.3813L170.827 6.59768L176.944 17.9601L189.746 14.0264L193.913 26.1561L207.206 24.1691L209.32 36.7675L222.777 36.7763L222.787 49.5331L236.077 51.5373L233.981 64.1384L246.776 68.0888L242.627 80.224L254.613 86.0232L248.512 97.3936L259.393 104.899L251.491 115.225L261 124.251L251.491 133.278L259.393 143.603L248.512 151.109L254.613 162.479L242.627 168.278L246.776 180.413L233.981 184.364L236.077 196.965L222.787 198.969L222.777 211.726L209.32 211.735L207.206 224.333L193.913 222.346L189.746 234.476L176.944 230.542L170.827 241.905L158.832 236.121L150.915 246.436L140.022 238.945L130.5 247.959L120.978 238.945L110.085 246.436L102.168 236.121L90.1733 241.905L84.0556 230.542L71.2542 234.476L67.087 222.346L53.794 224.333L51.6797 211.735L38.2226 211.726L38.2133 198.969L24.9233 196.965L27.0193 184.364L14.2236 180.413L18.3734 168.278L6.38712 162.479L12.4883 151.109L1.60667 143.603L9.50912 133.278L0 124.251L9.50912 115.225L1.60667 104.899L12.4883 97.3936L6.38712 86.0232L18.3734 80.224L14.2236 68.0888L27.0193 64.1384L24.9233 51.5373L38.2133 49.5331L38.2226 36.7763L51.6797 36.7675L53.794 24.1691L67.087 26.1561L71.2542 14.0264L84.0556 17.9601L90.1733 6.59768L102.168 12.3813L110.085 2.06602L120.978 9.5572L130.5 0.542969Z" fill="#3E8BFF"/>
<mask id="mask0_845_3905" style="mask-type:alpha" maskUnits="userSpaceOnUse" x="21" y="15" width="219" height="218">
<rect x="21.8086" y="15.3164" width="217.581" height="217.581" fill="#D9D9D9"/>
</mask>
<g mask="url(#mask0_845_3905)">
<path d="M110.857 172.319L65.0439 126.506L76.4972 115.053L110.857 149.412L184.6 75.6694L196.053 87.1227L110.857 172.319Z" fill="white"/>
</g>
</svg>
